<?xml version="1.0" encoding="UTF-8"?>
<svg width="45px" height="46px" viewBox="0 0 45 46" version="1.1" xmlns="http://www.w3.org/2000/svg" xmlns:xlink="http://www.w3.org/1999/xlink">
    <!-- Generator: Sketch 52.4 (67378) - http://www.bohemiancoding.com/sketch -->
    <title>iso-oalr</title>
    <desc>Created with Sketch.</desc>
    <defs>
        <path d="M16.3596148,20.9128468 C17.3351449,20.6699419 18.3475654,20.6349243 19.3909929,20.8047835 C19.3638021,21.7868609 19.3741378,23.5115968 19.7023357,24.7307165 C19.976311,25.7478116 20.8410106,26.9064032 25.2753392,28.4828292 C25.391735,28.5243433 25.4984311,28.562213 25.5933604,28.5965968 C25.8541378,28.6911919 26.1204806,28.7328644 26.3877774,28.7328644 C27.626629,28.732706 28.8853569,27.837618 29.7074417,27.1572306 C31.0157809,28.3644665 32.2929541,29.693868 33.5628127,31.1692025 C33.2610106,31.3854877 32.9337668,31.5992377 32.5739258,31.8107694 C31.871417,32.2236919 31.2633604,32.5870194 30.7284488,32.906456 C27.4631661,34.857618 27.1217703,35.061544 24.5594735,35.061544 C21.7976184,35.061544 18.5560283,34.5210687 14.6491378,33.4093785 C14.4359046,33.3486919 14.1992968,33.2854701 13.9437668,33.2173363 C12.0970177,32.7245546 9.47286572,32.0242025 7.76429682,30.2088327 C9.8055159,27.3202764 11.832583,24.4488327 12.521894,23.4621602 C12.8380071,23.009625 14.0488728,21.4888151 16.3596148,20.9128468 Z M5.58702827,30.2626743 C4.67939576,31.5467588 3.80149823,32.7882201 3.07227562,33.8191004 C1.12042049,30.5036778 3.180212e-05,26.642868 3.180212e-05,22.5212482 C3.180212e-05,10.1704912 10.0474346,0.158466549 22.4418339,0.158466549 C34.8359152,0.158466549 44.883477,10.1704912 44.883477,22.5212482 C44.883477,27.8556496 43.007788,32.753044 39.8795724,36.5967412 C38.5787067,34.6920053 37.2996254,32.9612482 36.0191131,31.3832377 C38.6171873,28.7914595 38.6011272,25.882463 38.5812509,22.838625 C38.5795018,22.5736954 38.5777527,22.3060722 38.5777527,22.0362306 L38.5777527,15.3144349 C38.5777527,11.1235722 35.0712509,9.27429401 32.1297138,8.4608081 C28.908,7.56999824 25.3557032,7.56999824 23.6485654,7.56999824 C20.2015336,7.56999824 16.9456325,7.56999824 14.7469929,9.46887148 C12.9738657,11.0002975 4.29474912,20.4146461 4.29474912,25.5408433 C4.29474912,27.5062658 4.79833569,29.0462482 5.58702827,30.2626743 Z M34.6855071,32.512706 C36.0095883,34.1463327 37.3343057,35.9512447 38.6863728,37.9502588 C34.5991643,42.2219313 28.8323269,44.8837447 22.4416908,44.8837447 C14.8599064,44.8837447 8.15681449,41.1367025 4.09409364,35.4001532 C4.82283922,34.3697482 5.75670848,33.0493785 6.74114311,31.6565968 C8.8125742,33.6522835 11.720083,34.4282165 13.4913021,34.900875 C13.7366555,34.9663151 13.9640406,35.0270018 14.1688463,35.0853116 C18.2341113,36.2421602 21.6329629,36.8045018 24.559394,36.8045018 C27.6060371,36.8045018 28.219977,36.4376884 31.6278922,34.4014384 C32.1596237,34.0837447 32.764182,33.7226356 33.4625565,33.3120898 C33.9085813,33.0500123 34.3134223,32.7831813 34.6855071,32.512706 Z M36.8321502,22.8501602 C36.8502774,25.6262165 36.8636343,27.9511637 34.8887226,30.0303539 C31.5738286,26.1784173 28.2020088,23.2841567 24.3660371,20.925618 C17.6136519,16.774368 12.7270972,20.1181532 11.0864258,22.4662342 C10.4406837,23.3906356 8.61651413,25.9754419 6.7080689,28.6765511 C6.29177915,27.815213 6.04388163,26.7846496 6.04388163,25.5408116 C6.04388163,21.3017799 13.9435283,12.4692623 15.8925212,10.785882 C17.5982279,9.3129243 20.5370618,9.3129243 23.6485813,9.3129243 C25.2784399,9.3129243 28.669818,9.3129243 31.6619205,10.1403539 C35.1385283,11.1016743 36.8286519,12.7940863 36.8286519,15.3144032 L36.8286519,22.0361989 C36.8286519,22.3100018 36.8304011,22.5814278 36.8321502,22.8501602 Z M25.8631378,26.8412799 C24.8287739,26.4736743 21.681318,25.354537 21.3916007,24.2789736 C21.1592862,23.4158926 21.1223958,22.1636567 21.1319364,21.2677764 C21.890735,21.5463327 22.6632085,21.9266144 23.4476078,22.4089384 C25.1727138,23.4697658 26.8019364,24.6468961 28.3763004,25.9805757 C27.1202756,26.9626532 26.496636,27.0694489 26.1911767,26.9585335 C26.0932261,26.9231989 25.9831908,26.8840616 25.8631378,26.8412799 Z" id="path-1"/>
    </defs>
    <g id="Symbols" stroke="none" stroke-width="1" fill="none" fill-rule="evenodd">
        <g id="constants/footer-dektop-V1" transform="translate(-55.000000, -36.000000)">
            <g id="Group" transform="translate(55.000000, 36.000000)">
                <g id="assets/iso" transform="translate(0.000000, 0.500000)">
                    <mask id="mask-2" fill="white">
                        <use xlink:href="#path-1"/>
                    </mask>
                    <use id="Combined-Shape" fill="#3C3C3C" fill-rule="evenodd" xlink:href="#path-1"/>
                    <g id="color-/-interface-/noir-oalr" mask="url(#mask-2)" fill="#3C3C3C" fill-rule="evenodd">
                        <rect id="Rectangle-3-Copy" x="0" y="0" width="45" height="45"/>
                    </g>
                </g>
            </g>
        </g>
    </g>
</svg>