<?xml version="1.0" encoding="UTF-8"?>
<svg width="108px" height="61px" viewBox="0 0 108 61" version="1.1" xmlns="http://www.w3.org/2000/svg" xmlns:xlink="http://www.w3.org/1999/xlink">
    <!-- Generator: Sketch 52.4 (67378) - http://www.bohemiancoding.com/sketch -->
    <title>assets/logo-OaLR</title>
    <desc>Created with Sketch.</desc>
    <g id="Symbols" stroke="none" stroke-width="1" fill="none" fill-rule="evenodd">
        <g id="composants/header-desktop-V-2" transform="translate(-55.000000, -32.000000)" fill="#3C3C3C">
            <g id="assets/logo-OaLR" transform="translate(55.000000, 32.000000)">
                <g id="Group-24">
                    <path d="M21.4346338,9.85960608 C21.1132452,4.8844643 20.5625513,0.593443783 16.6612005,0.593443783 C12.2091559,0.593443783 11.8877673,5.15829236 11.7040522,10.1792218 C11.5663787,14.6524951 11.520337,19.1257684 11.7500938,23.553254 C12.0714824,28.5288447 12.6221763,32.8194163 16.5235271,32.8194163 C21.0216134,32.8194163 21.2969603,28.2550166 21.4806755,23.2336383 C21.6643906,18.7608139 21.7099808,14.2875406 21.4346338,9.85960608 M16.6151589,33.3675214 C6.05853631,33.3675214 0,25.8359028 0,16.8435685 C0,7.62319389 5.55343259,0 16.5235271,0 C27.0806011,0 33.2307692,7.57740624 33.2307692,16.5697405 C33.2307692,25.7901151 27.5852534,33.3675214 16.6151589,33.3675214" id="Fill-2"/>
                    <path d="M61.6491081,10.283153 C61.3742162,5.87953126 60.6398171,1.29037396 56.5543554,1.29037396 L53.3418672,1.29037396 C52.9744419,1.29037396 52.8367703,1.42986757 52.8367703,1.56890531 L52.8367703,32.4402992 C52.8367703,32.5797928 52.9288523,32.7188305 53.2958262,32.7188305 L56.6464374,32.7188305 C60.914709,32.7188305 61.4658468,28.3152088 61.7411901,23.4014782 C61.9704923,19.0443543 61.9244513,14.6407326 61.6491081,10.283153 M56.8757396,33.3675214 L40.6733699,33.3675214 C40.3519856,33.3675214 40.260355,33.2284836 40.260355,33.042948 C40.260355,32.8578683 40.3519856,32.7648725 40.6733699,32.7648725 L42.2337987,32.7648725 C42.6933059,32.7648725 42.7388956,32.5797928 42.7388956,31.0034238 L42.7388956,3.00578063 C42.7388956,1.42986757 42.6933059,1.24433195 42.2337987,1.24433195 L40.6733699,1.24433195 C40.3519856,1.24433195 40.260355,1.15133621 40.260355,0.966256462 C40.260355,0.780720848 40.3519856,0.641683103 40.6733699,0.641683103 L56.8296986,0.641683103 C66.6061891,0.641683103 73.4911243,8.10459104 73.4911243,16.8653366 C73.4911243,25.9046134 67.065245,33.3675214 56.8757396,33.3675214" id="Fill-4"/>
                    <path d="M108,21.1764184 L108,32.9504081 C108,33.2749815 107.814947,33.3675214 107.583971,33.3675214 L79.6586328,33.3675214 C79.3349029,33.3675214 79.2426036,33.2284836 79.2426036,33.042948 C79.2426036,32.8578683 79.3349029,32.7648725 79.6586328,32.7648725 L81.2309051,32.7648725 C81.6933113,32.7648725 81.7392337,32.5797928 81.7392337,31.0034238 L81.7392337,3.00578063 C81.7392337,1.42986757 81.6933113,1.24433195 81.2309051,1.24433195 L79.6586328,1.24433195 C79.3349029,1.24433195 79.2426036,1.15133621 79.2426036,0.966256462 C79.2426036,0.780720848 79.3349029,0.641683103 79.6586328,0.641683103 L105.965321,0.641683103 C106.196752,0.641683103 106.381805,0.734222979 106.381805,1.05879634 L106.381805,12.5082127 C106.381805,12.8788281 106.243129,12.9718238 106.012153,12.9718238 C105.780723,12.9718238 105.688423,12.8327861 105.688423,12.5082127 L105.688423,11.9985596 C105.688423,7.68747781 101.296246,1.29037396 95.3781728,1.29037396 L92.4191364,1.29037396 C92.0958612,1.29037396 91.9103531,1.3833697 91.9103531,1.56890531 L91.9103531,15.6139969 C91.9103531,15.7995325 92.0494842,15.8920723 92.373214,15.8920723 L93.2052725,15.8920723 C96.5339612,15.8920723 100.001326,13.0183217 100.001326,10.1441152 L100.001326,9.86603972 C100.001326,9.49496849 100.140457,9.40242862 100.325056,9.40242862 C100.556487,9.40242862 100.648786,9.54146636 100.648786,9.86603972 L100.648786,22.5672517 C100.648786,22.8913692 100.51011,22.9843649 100.325056,22.9843649 C100.09408,22.9843649 100.001326,22.8913692 100.001326,22.5672517 L100.001326,22.2887203 C100.001326,19.4149697 96.5339612,16.4947212 93.2052725,16.4947212 L92.4191364,16.4947212 C92.0958612,16.4947212 91.9103531,16.5872611 91.9103531,16.7727967 L91.9103531,32.4402992 C91.9103531,32.6258348 92.0494842,32.7188305 92.373214,32.7188305 L95.0085206,32.7188305 C103.561445,32.7188305 107.306618,24.2357046 107.306618,21.6400295 L107.306618,21.1764184 C107.306618,20.805803 107.44484,20.7128073 107.67627,20.7128073 C107.861324,20.7128073 108,20.8523009 108,21.1764184" id="Fill-6"/>
                    <path d="M16.7823662,45.7043996 L16.733292,45.7043996 L15.6452589,53.3865064 C15.6205007,53.5117971 15.6695749,53.5368552 15.7690497,53.5368552 L17.8951575,53.5368552 C17.9937481,53.5368552 18.0680226,53.4867389 18.0437066,53.3368376 L16.7823662,45.7043996 Z M21.5545035,60.3182117 L18.2908461,60.3182117 C18.1670553,60.3182117 18.1179811,60.2680954 18.1179811,60.1929211 C18.1179811,60.1181941 18.1670553,60.0680779 18.2908461,60.0680779 L18.7608093,60.0680779 C19.0574652,60.0680779 19.1065394,59.9427872 18.9584325,59.0670951 L18.1422971,53.9373378 C18.1179811,53.8120472 18.0680226,53.786989 17.9937481,53.786989 L15.7195334,53.786989 C15.6452589,53.786989 15.5709843,53.8120472 15.5462262,53.9373378 L15.372919,55.2636288 C14.9529143,58.3914205 15.051947,60.0680779 16.139538,60.0680779 L16.3866776,60.0680779 C16.5104685,60.0680779 16.5599848,60.1181941 16.5599848,60.1929211 C16.5599848,60.2680954 16.5104685,60.3182117 16.3866776,60.3182117 L13.5929834,60.3182117 C13.4696347,60.3182117 13.4201183,60.2680954 13.4201183,60.1929211 C13.4201183,60.1181941 13.4696347,60.0680779 13.5929834,60.0680779 L13.6424998,60.0680779 C14.3843606,60.0680779 14.4833933,59.1673276 15.051947,55.2882395 L16.9309152,42.5014336 C16.9556734,42.3761429 17.0051898,42.3510848 17.1042224,42.3510848 L17.7961249,42.3510848 C17.8703994,42.3510848 17.9199157,42.3761429 17.9446739,42.5014336 L20.886475,59.0670951 C21.035024,59.9181766 21.0845403,60.0680779 21.4059544,60.0680779 L21.5545035,60.0680779 C21.6778522,60.0680779 21.7278107,60.1181941 21.7278107,60.1929211 C21.7278107,60.2680954 21.6778522,60.3182117 21.5545035,60.3182117 Z" id="Fill-8"/>
                    <path d="M36.4260355,53.6250223 L36.4260355,60.1398237 C36.4260355,60.2927277 36.3514181,60.3182117 36.2768006,60.3182117 L29.5701129,60.3182117 C29.4461947,60.3182117 29.3964497,60.2672437 29.3964497,60.1907917 C29.3964497,60.1147948 29.4461947,60.0638268 29.5701129,60.0638268 L30.2163534,60.0638268 C30.3651441,60.0638268 30.4148891,59.7839579 30.4148891,59.1727971 L30.4148891,43.4710154 C30.4148891,42.8603096 30.3651441,42.6054697 30.2163534,42.6054697 L29.5701129,42.6054697 C29.4461947,42.6054697 29.3964497,42.5545017 29.3964497,42.4785048 C29.3964497,42.4020528 29.4461947,42.3510848 29.5701129,42.3510848 L33.4200181,42.3510848 C33.5448247,42.3510848 33.5941255,42.4020528 33.5941255,42.4785048 C33.5941255,42.5545017 33.5448247,42.6054697 33.4200181,42.6054697 L32.5508137,42.6054697 C32.3771504,42.6054697 32.3274055,43.3181114 32.3274055,43.9288172 L32.3274055,59.9873748 C32.3274055,60.0128588 32.3522779,60.0638268 32.5015128,60.0638268 L32.8990284,60.0638268 C35.9041575,60.0638268 36.1275657,56.2972013 36.1275657,55.1777258 L36.1275657,53.6250223 C36.1275657,53.5230864 36.2021831,53.4725734 36.2768006,53.4725734 C36.3514181,53.4725734 36.4260355,53.5230864 36.4260355,53.6250223" id="Fill-10"/>
                    <path d="M42.3446753,45.7043996 L42.2951564,45.7043996 L41.2075075,53.3865064 C41.1823058,53.5117971 41.2318248,53.5368552 41.3308628,53.5368552 L43.4575259,53.5368552 C43.5561217,53.5368552 43.6304002,53.4867389 43.6056407,53.3368376 L42.3446753,45.7043996 Z M47.1166244,60.3182117 L43.8527934,60.3182117 C43.7294381,60.3182117 43.6799191,60.2680954 43.6799191,60.1929211 C43.6799191,60.1181941 43.7294381,60.0680779 43.8527934,60.0680779 L44.3227815,60.0680779 C44.6194533,60.0680779 44.6689722,59.9427872 44.5204153,59.0670951 L43.7046786,53.9373378 C43.6799191,53.8120472 43.6304002,53.786989 43.5561217,53.786989 L41.2813438,53.786989 C41.2075075,53.786989 41.133229,53.8120472 41.1084695,53.9373378 L40.9351531,55.2636288 C40.5146839,58.3914205 40.6137219,60.0680779 41.7018129,60.0680779 L41.9489657,60.0680779 C42.0727631,60.0680779 42.1222821,60.1181941 42.1222821,60.1929211 C42.1222821,60.2680954 42.0727631,60.3182117 41.9489657,60.3182117 L39.1551228,60.3182117 C39.0313254,60.3182117 38.9822485,60.2680954 38.9822485,60.1929211 C38.9822485,60.1181941 39.0313254,60.0680779 39.1551228,60.0680779 L39.2041996,60.0680779 C39.9461,60.0680779 40.0451379,59.1673276 40.6137219,55.2882395 L42.4927901,42.5014336 C42.5179918,42.3761429 42.5670686,42.3510848 42.6661065,42.3510848 L43.3584879,42.3510848 C43.4327664,42.3510848 43.4818432,42.3761429 43.5066027,42.5014336 L46.4490025,59.0670951 C46.5975594,59.9181766 46.6466363,60.0680779 46.9685096,60.0680779 L47.1166244,60.0680779 C47.2399797,60.0680779 47.2899408,60.1181941 47.2899408,60.1929211 C47.2899408,60.2680954 47.2399797,60.3182117 47.1166244,60.3182117 Z" id="Fill-12"/>
                    <path d="M59.4005667,42.6012186 L58.6939464,42.6012186 C58.5230672,42.6012186 58.4742446,42.7014512 58.4742446,42.7766256 L58.4742446,50.5088486 C58.4742446,50.584023 58.4986559,50.6587499 58.6690992,50.6587499 L59.3029214,50.6587499 C60.6682112,50.6587499 60.7658565,49.1825576 60.7658565,46.6803243 C60.7658565,44.6282424 60.6198245,42.6012186 59.4005667,42.6012186 M61.1555656,57.740804 C61.1555656,56.4896874 61.2048241,55.4135302 61.2048241,54.1624135 C61.2048241,51.3594827 60.2540908,50.8842731 59.0836556,50.8842731 L58.7423331,50.8842731 C58.5474785,50.8842731 58.4742446,50.9840582 58.4742446,51.0592326 L58.4742446,58.8916881 C58.4742446,59.4926358 58.5230672,59.7678278 58.6939464,59.7678278 L59.3029214,59.7678278 C59.4254139,59.7678278 59.4738006,59.817944 59.4738006,59.892671 C59.4738006,59.9678453 59.4254139,60.0179616 59.3029214,60.0179616 L55.7685123,60.0179616 C55.6464558,60.0179616 55.5976331,59.9678453 55.5976331,59.892671 C55.5976331,59.817944 55.6464558,59.7678278 55.7685123,59.7678278 L56.4023346,59.7678278 C56.5483665,59.7678278 56.5971891,59.4926358 56.5971891,58.8916881 L56.5971891,43.4773583 C56.5971891,42.8764106 56.5483665,42.6012186 56.4023346,42.6012186 L55.7685123,42.6012186 C55.6464558,42.6012186 55.5976331,42.5511024 55.5976331,42.4763755 C55.5976331,42.4012011 55.6464558,42.3510848 55.7685123,42.3510848 L59.6686552,42.3510848 C61.2048241,42.3510848 62.6673232,43.6773759 62.6673232,46.5550336 C62.6673232,48.0562841 61.8870331,50.4837905 59.961155,50.7339243 L59.961155,50.7589825 C61.8386464,51.1594651 63.033057,52.5108142 63.033057,55.7388384 L63.033057,58.7663975 C63.033057,59.1919382 63.033057,59.9678453 63.5936453,59.9678453 C64.1302582,59.9678453 64.2274676,59.342287 64.2518789,58.9167463 C64.2518789,58.8165138 64.2518789,58.6666124 64.3983467,58.6666124 C64.5443787,58.6666124 64.5443787,58.8165138 64.5443787,58.9167463 C64.4955561,59.7427696 64.1302582,60.3182117 63.2523229,60.3182117 C61.9118803,60.3182117 61.1555656,59.0420369 61.1555656,57.740804" id="Fill-14"/>
                    <path d="M72.2923316,46.9140564 C72.1119502,43.6762155 71.6478488,42.580373 70.6153846,42.580373 C69.5838431,42.580373 69.1192803,43.6762155 68.9384376,46.9140564 C68.8097256,49.6673379 68.8097256,53.6185704 68.9384376,56.3969232 C69.1192803,59.609237 69.5575471,60.7310625 70.5900113,60.7310625 C71.6220141,60.7310625 72.1119502,59.5837099 72.2923316,56.3969232 C72.421505,53.6440975 72.421505,49.692865 72.2923316,46.9140564 M70.5900113,60.9598948 C67.6490107,60.9598948 66.4615385,56.371852 66.4615385,51.6552619 C66.4615385,46.9140564 67.7002187,42.3510848 70.6153846,42.3510848 C73.5310119,42.3510848 74.7692308,46.9395835 74.7692308,51.6552619 C74.7692308,56.3969232 73.4793425,60.9598948 70.5900113,60.9598948" id="Fill-16"/>
                    <path d="M78.5967712,60.2971178 C78.4279445,60.1950118 78.2591178,60.1694853 78.2591178,60.3226443 L78.2591178,60.4753474 C78.2345063,60.6795593 78.1382189,60.7050858 78.0898594,60.7050858 C78.01732,60.7050858 77.9447807,60.6795593 77.9693922,60.4753474 L77.9693922,54.255545 C77.9693922,54.102386 78.0414998,54.0513331 78.1140391,54.0513331 C78.1623987,54.0513331 78.2591178,54.102386 78.2591178,54.255545 L78.2591178,54.510354 C78.2591178,56.8045472 78.6934903,60.7306122 80.6736417,60.7306122 C81.5669983,60.7306122 82.4845346,59.7104644 82.4845346,57.9008187 C82.4845346,53.2869059 78.0661114,52.3437933 78.0661114,46.7863122 C78.0661114,44.7724546 78.8869286,42.3510848 80.4802035,42.3510848 C80.9150077,42.3510848 81.4219196,42.5803674 81.8325441,42.8607029 C82.194809,43.0899855 82.4366068,43.2686709 82.4366068,42.9628089 L82.4366068,42.8351764 C82.4366068,42.6314204 82.5087144,42.5803674 82.5812537,42.5803674 C82.6537931,42.5803674 82.7259006,42.6314204 82.7259006,42.8351764 L82.7259006,48.3160781 C82.7259006,48.4687812 82.6537931,48.5198342 82.5812537,48.5198342 C82.5087144,48.5198342 82.4366068,48.4687812 82.4366068,48.3160781 L82.4366068,48.0612691 C82.4366068,46.735715 81.8567239,42.5803674 80.4322757,42.5803674 C79.7077458,42.5803674 79.2971213,43.778289 79.2971213,45.1293696 C79.2971213,49.9474942 83.7159763,50.8650803 83.7159763,56.2438761 C83.7159763,58.5380692 82.6775411,60.9598948 80.5769226,60.9598948 C79.924932,60.9598948 79.224582,60.6795593 78.5967712,60.2971178" id="Fill-18"/>
                    <path d="M93.9408284,54.6430169 L93.9408284,60.1398237 C93.9408284,60.2927277 93.865946,60.3182117 93.7915093,60.3182117 L87.0859682,60.3182117 C86.9616099,60.3182117 86.9112426,60.2672437 86.9112426,60.1907917 C86.9112426,60.1143397 86.9616099,60.0638268 87.0859682,60.0638268 L87.7340576,60.0638268 C87.8838224,60.0638268 87.9332983,59.7835029 87.9332983,59.1727971 L87.9332983,43.4960443 C87.9332983,42.8853386 87.8838224,42.6054697 87.7340576,42.6054697 L87.0859682,42.6054697 C86.9616099,42.6054697 86.9112426,42.5545017 86.9112426,42.4785048 C86.9112426,42.4020528 86.9616099,42.3510848 87.0859682,42.3510848 L93.0435767,42.3510848 C93.1180134,42.3510848 93.1928958,42.3761137 93.1928958,42.5290177 L93.1928958,47.8478916 C93.1928958,47.9498276 93.1180134,48.0007956 93.0435767,48.0007956 C92.9686943,48.0007956 92.8938119,47.9498276 92.8938119,47.8478916 L92.8938119,47.1607339 C92.8938119,45.6849375 92.594728,42.6054697 90.4512192,42.6054697 L90.0522921,42.6054697 C89.9025273,42.6054697 89.8530514,42.6819217 89.8530514,42.7069506 L89.8530514,50.7489714 C89.8530514,50.7749105 89.8780122,50.8254234 90.027777,50.8254234 L90.1022137,50.8254234 C90.7003815,50.8254234 91.32351,49.9348488 91.32351,48.4840813 L91.32351,48.1282156 C91.32351,48.0007956 91.3983925,47.9498276 91.4732749,47.9498276 C91.5481573,47.9498276 91.5976331,48.0007956 91.5976331,48.1282156 L91.5976331,53.7265033 C91.5976331,53.8794072 91.5227507,53.9303752 91.4483141,53.9303752 C91.3734316,53.9303752 91.32351,53.8539232 91.32351,53.7265033 L91.32351,53.3961215 C91.32351,51.945354 90.7003815,51.0547794 90.1022137,51.0547794 L90.0522921,51.0547794 C89.9025273,51.0547794 89.8530514,51.1307763 89.8530514,51.1817443 L89.8530514,59.9873748 C89.8530514,60.0128588 89.8780122,60.0638268 90.027777,60.0638268 L90.4017433,60.0638268 C93.4674646,60.0638268 93.6417445,56.2207493 93.6417445,55.3552036 L93.6417445,54.6430169 C93.6417445,54.541081 93.7166269,54.490113 93.7915093,54.490113 C93.865946,54.490113 93.9408284,54.541081 93.9408284,54.6430169" id="Fill-20"/>
                    <path d="M17.6909627,40.9754235 L16.9432906,39.2603364 C16.7219734,38.7362119 16.6153846,38.579185 16.6153846,38.3585896 C16.6153846,38.0727418 16.7960042,37.8593031 17.0270113,37.8593031 C17.376235,37.8593031 17.4661572,38.1350473 17.6076296,39.0591063 L17.8909621,40.9341671 C17.9037528,41.0032084 17.8657684,41.0495166 17.827784,41.063409 C17.7886368,41.0768805 17.7308851,41.0617251 17.6909627,40.9754235" id="Fill-22"/>
                </g>
            </g>
        </g>
    </g>
</svg>