<?xml version="1.0" encoding="UTF-8"?>
<svg width="32px" height="32px" viewBox="0 0 32 32" version="1.1" xmlns="http://www.w3.org/2000/svg" xmlns:xlink="http://www.w3.org/1999/xlink">
    <!-- Generator: Sketch 52.6 (67491) - http://www.bohemiancoding.com/sketch -->
    <title>icon-tel</title>
    <desc>Created with Sketch.</desc>
    <g id="icon-tel" stroke="none" stroke-width="1" fill="none" fill-rule="evenodd">
        <path d="M27.0000262,21.3749945 C27.0000262,21.9374952 26.7500259,23.0312465 26.5156506,23.5468721 C26.1875253,24.312498 25.3125242,24.8124986 24.6093984,25.2031241 C23.6875223,25.7031246 22.7500212,26 21.7031449,26 C20.2500182,26 18.9375166,25.4062493 17.60939,24.9218737 C16.6562639,24.5781233 15.7343878,24.1562478 14.8750118,23.6249972 C12.2187586,21.9843702 9.01562979,18.7812414 7.37500283,16.1249882 C6.8437522,15.2656122 6.4218767,14.3437361 6.07812629,13.39061 C5.59375071,12.0624834 5,10.7499818 5,9.29685509 C5,8.24997884 5.29687535,7.31247772 5.79687595,6.39060162 C6.18750142,5.68747579 6.68750201,4.81247474 7.45312792,4.48434935 C7.96875354,4.24997407 9.06250484,3.99997377 9.62500551,3.99997377 C9.73438064,3.99997377 9.84375577,3.99997377 9.9531309,4.04684883 C10.2812563,4.15622396 10.6250067,4.92184987 10.7812569,5.23435025 C11.2812575,6.12497631 11.7656331,7.03122739 12.2812587,7.90622843 C12.531259,8.31247891 13.0000095,8.81247951 13.0000095,9.29685509 C13.0000095,10.2499812 10.1718812,11.6406079 10.1718812,12.4843589 C10.1718812,12.9062344 10.5625066,13.45311 10.7812569,13.8281105 C12.3593838,16.6718639 14.3281361,18.6406162 17.1718895,20.2187431 C17.54689,20.4374934 18.0937656,20.8281188 18.5156411,20.8281188 C19.3593921,20.8281188 20.7500188,17.9999905 21.7031449,17.9999905 C22.1875205,17.9999905 22.6875211,18.468741 23.0937716,18.7187413 C23.9687726,19.2343669 24.8750237,19.7187425 25.7656498,20.2187431 C26.0781501,20.3749933 26.843776,20.7187437 26.9531512,21.0468691 C27.0000262,21.1562442 27.0000262,21.2656194 27.0000262,21.3749945 Z" id="phone---FontAwesome" fill="#3C3C3C"></path>
    </g>
</svg>