<?xml version="1.0" encoding="UTF-8"?>
<svg width="30px" height="23px" viewBox="0 0 30 23" version="1.1" xmlns="http://www.w3.org/2000/svg" xmlns:xlink="http://www.w3.org/1999/xlink">
    <!-- Generator: Sketch 52.4 (67378) - http://www.bohemiancoding.com/sketch -->
    <title>oalr-arrow-right</title>
    <desc>Created with Sketch.</desc>
    <g id="desktop" stroke="none" stroke-width="1" fill="none" fill-rule="evenodd">
        <g id="V10-04-achat-1.0" transform="translate(-580.000000, -358.000000)" fill="#3C3C3C">
            <g id="Group-9" transform="translate(385.000000, 152.000000)">
                <g id="Group-10" transform="translate(153.000000, 190.000000)">
                    <path d="M71.5027819,27.7828539 C67.9724339,27.7828539 60.9117378,34.6774848 57.870745,38.570653 C57.6959753,38.777492 57.6260674,38.9866291 57.3813898,38.8809114 C57.2066201,38.8142633 57.2066201,38.6418976 57.311482,38.4350586 C58.6746856,35.7461526 59.653396,32.1264713 59.6883499,27.7460825 L51.0896805,27.7460825 C49.7614308,29.2307264 48.7477665,30.6073543 48.0137337,32.0919982 C47.9088719,32.2620658 47.838964,32.4344315 47.6292404,32.3677834 C47.4544707,32.2620658 47.4544707,32.0552268 47.5243786,31.8506861 C48.2234574,30.4717599 49.2371217,29.0905355 50.3906017,27.7460825 L49.7264768,27.7460825 C48.3982271,29.2307264 47.3496089,30.6073543 46.6155761,32.0919982 C46.5456682,32.2620658 46.4757604,32.4344315 46.2660367,32.3677834 C46.0563131,32.2620658 46.0563131,32.0552268 46.1611749,31.8506861 C46.8602537,30.4717599 47.838964,29.0905355 49.027398,27.7460825 L48.3283192,27.7460825 C47.0000695,29.2307264 45.9864052,30.6073543 45.2523724,32.0919982 C45.1475106,32.2620658 45.0776027,32.4344315 44.902833,32.3677834 C44.6931094,32.2620658 44.6931094,32.0552268 44.8003015,31.8506861 C45.49705,30.4717599 46.4757604,29.0905355 47.6641943,27.7460825 L46.9651155,27.7460825 C45.6368658,29.2307264 44.6232015,30.6073543 43.8891687,32.0919982 C43.7843069,32.2620658 43.714399,32.4344315 43.5396293,32.3677834 C43.3299057,32.2620658 43.3299057,32.0552268 43.4370978,31.8506861 C44.1338463,30.4717599 45.1125567,29.0905355 46.2660367,27.7460825 L45.6019118,27.7460825 C44.2736621,29.2307264 43.2599978,30.6073543 42.5259651,32.0919982 C42.4234335,32.2620658 42.3511954,32.4344315 42.1414717,32.3677834 C41.966702,32.2620658 41.966702,32.0552268 42.0715638,31.8506861 C42.8405505,30.264921 43.9590766,28.8147503 45.2174185,27.4702973 C43.9264529,26.1970888 42.8079268,24.5745523 42.0715638,23.0577335 C41.966702,22.8508946 41.966702,22.6463538 42.1414717,22.5429344 C42.3511954,22.4716899 42.4234335,22.6463538 42.5259651,22.8187196 C43.2599978,24.2987671 44.2736621,25.6799914 45.6019118,27.1600389 L46.2660367,27.1600389 C45.1125567,25.8178841 44.1338463,24.4389579 43.4370978,23.0577335 C43.3299057,22.8508946 43.3299057,22.6463538 43.5396293,22.5429344 C43.714399,22.4716899 43.7843069,22.6463538 43.8891687,22.8187196 C44.6232015,24.2987671 45.6368658,25.6799914 46.9651155,27.1600389 L47.6641943,27.1600389 C46.4757604,25.8178841 45.49705,24.4389579 44.8003015,23.0577335 C44.6931094,22.8508946 44.6931094,22.6463538 44.902833,22.5429344 C45.0776027,22.4716899 45.1475106,22.6463538 45.2523724,22.8187196 C45.9864052,24.2987671 47.0000695,25.6799914 48.3283192,27.1600389 L49.027398,27.1600389 C47.838964,25.8178841 46.8602537,24.4389579 46.1611749,23.0577335 C46.0563131,22.8508946 46.0563131,22.6463538 46.2660367,22.5429344 C46.4757604,22.4716899 46.5456682,22.6463538 46.6155761,22.8187196 C47.3496089,24.2987671 48.3982271,25.6799914 49.7264768,27.1600389 L50.3906017,27.1600389 C49.2371217,25.8178841 48.2234574,24.4389579 47.5243786,23.0577335 C47.4544707,22.8508946 47.4544707,22.6463538 47.6292404,22.5429344 C47.838964,22.4716899 47.9088719,22.6463538 48.0137337,22.8187196 C48.7477665,24.2987671 49.7614308,25.6799914 51.0896805,27.1600389 L59.6883499,27.1600389 C59.653396,22.7842465 58.6746856,19.1645652 57.311482,16.4756592 C57.2066201,16.2688202 57.2415741,16.0964545 57.3813898,16.0275082 C57.6260674,15.9240887 57.6959753,16.1309276 57.870745,16.3377666 C60.9117378,20.233233 67.9724339,27.1278639 71.5377358,27.1278639 C71.7824134,27.1278639 71.9571831,27.1600389 71.9571831,27.4381223 C71.9571831,27.7139076 71.7824134,27.7828539 71.5027819,27.7828539" id="oalr-arrow-right"></path>
                </g>
            </g>
        </g>
    </g>
</svg>