<?xml version="1.0" encoding="UTF-8"?>
<svg width="24px" height="24px" viewBox="0 0 24 24" version="1.1" xmlns="http://www.w3.org/2000/svg" xmlns:xlink="http://www.w3.org/1999/xlink">
    <!-- Generator: Sketch 52.5 (67469) - http://www.bohemiancoding.com/sketch -->
    <title>oalr-ico-pinterest</title>
    <desc>Created with Sketch.</desc>
    <g id="Symbols" stroke="none" stroke-width="1" fill="none" fill-rule="evenodd">
        <g id="constants/footer-dektop-V1" transform="translate(-694.000000, -294.000000)">
            <g id="oalr-ico-pinterest" transform="translate(690.000000, 290.000000)">
                <rect id="Rectangle-Copy-3" x="0" y="0" width="32" height="32"></rect>
                <path d="M28.0000286,16.0000143 C28.0000286,22.6250222 22.6250222,28.0000286 16.0000143,28.0000286 C14.8125129,28.0000286 13.6875115,27.8281534 12.5937602,27.500028 C13.0468858,26.7812772 13.5625114,25.8594011 13.8125117,24.937525 C13.8125117,24.937525 13.9531369,24.4062743 14.6562627,21.640646 C15.0625132,22.437522 16.2812646,23.1406478 17.5781412,23.1406478 C21.4375208,23.1406478 24.0625239,19.6250186 24.0625239,14.906263 C24.0625239,11.3593838 21.0468953,8.03125481 16.4531398,8.03125481 C10.7656331,8.03125481 7.89062964,12.1250097 7.89062964,15.5312637 C7.89062964,17.5937662 8.67188057,19.4375184 10.3437576,20.1250192 C10.6093829,20.2343944 10.8593832,20.1250192 10.9375083,19.8125188 C11.0000083,19.6093936 11.1250085,19.078143 11.1875086,18.8593927 C11.2656337,18.5468923 11.2343836,18.4531422 11.0156334,18.1875169 C10.5312578,17.6093912 10.2187574,16.8750153 10.2187574,15.8281391 C10.2187574,12.7968855 12.4843851,10.0781322 16.1250145,10.0781322 C19.3437683,10.0781322 21.1250204,12.0468846 21.1250204,14.6875127 C21.1250204,18.1406419 19.5937686,21.0625203 17.3125159,21.0625203 C16.0625144,21.0625203 15.1250133,20.0312691 15.4218886,18.7500176 C15.781264,17.2343908 16.4843899,15.5937638 16.4843899,14.5000125 C16.4843899,13.5156363 15.9531392,12.6875104 14.8593879,12.6875104 C13.5781364,12.6875104 12.5468852,14.0156369 12.5468852,15.7968891 C12.5468852,15.7968891 12.5468852,16.9375154 12.9375107,17.7031413 C11.6250091,23.265648 11.3906338,24.2343991 11.3906338,24.2343991 C11.1718835,25.1406502 11.1562585,26.1562764 11.1875086,27.0000274 C6.95312852,25.1406502 4,20.9218952 4,16.0000143 C4,9.37500641 9.37500641,4 16.0000143,4 C22.6250222,4 28.0000286,9.37500641 28.0000286,16.0000143 Z" fill="#3C3C3C"></path>
            </g>
        </g>
    </g>
</svg>