<?xml version="1.0" encoding="UTF-8"?>
<svg width="24px" height="24px" viewBox="0 0 24 24" version="1.1" xmlns="http://www.w3.org/2000/svg" xmlns:xlink="http://www.w3.org/1999/xlink">
    <!-- Generator: Sketch 52.5 (67469) - http://www.bohemiancoding.com/sketch -->
    <title>oalr-ico-instagram</title>
    <desc>Created with Sketch.</desc>
    <g id="Symbols" stroke="none" stroke-width="1" fill="none" fill-rule="evenodd">
        <g id="constants/footer-dektop-V1" transform="translate(-606.000000, -294.000000)">
            <g id="oalr-ico-instagram" transform="translate(602.000000, 290.000000)">
                <rect id="Rectangle-Copy" x="0" y="0" width="32" height="32"></rect>
                <path d="M20.0009956,16.0009909 C20.0009956,13.7978632 18.2041185,12.0009861 16.0009909,12.0009861 C13.7978632,12.0009861 12.0009861,13.7978632 12.0009861,16.0009909 C12.0009861,18.2041185 13.7978632,20.0009956 16.0009909,20.0009956 C18.2041185,20.0009956 20.0009956,18.2041185 20.0009956,16.0009909 Z M22.1572482,16.0009909 C22.1572482,19.4072449 19.4072449,22.1572482 16.0009909,22.1572482 C12.5947368,22.1572482 9.84473353,19.4072449 9.84473353,16.0009909 C9.84473353,12.5947368 12.5947368,9.84473353 16.0009909,9.84473353 C19.4072449,9.84473353 22.1572482,12.5947368 22.1572482,16.0009909 Z M23.8447502,9.59473323 C23.8447502,10.3916092 23.2041245,11.0322349 22.4072485,11.0322349 C21.6103726,11.0322349 20.9697468,10.3916092 20.9697468,9.59473323 C20.9697468,8.79785728 21.6103726,8.15723152 22.4072485,8.15723152 C23.2041245,8.15723152 23.8447502,8.79785728 23.8447502,9.59473323 Z M16.0009909,6.15722913 C14.2509888,6.15722913 10.5009843,6.01660397 8.92285743,6.64160471 C8.37598178,6.86035497 7.96973129,7.12598029 7.54785579,7.54785579 C7.12598029,7.96973129 6.86035497,8.37598178 6.64160471,8.92285743 C6.01660397,10.5009843 6.15722913,14.2509888 6.15722913,16.0009909 C6.15722913,17.750993 6.01660397,21.5009974 6.64160471,23.0791243 C6.86035497,23.626 7.12598029,24.0322504 7.54785579,24.4541259 C7.96973129,24.8760014 8.37598178,25.1416268 8.92285743,25.360377 C10.5009843,25.9853778 14.2509888,25.8447526 16.0009909,25.8447526 C17.750993,25.8447526 21.5009974,25.9853778 23.0791243,25.360377 C23.626,25.1416268 24.0322504,24.8760014 24.4541259,24.4541259 C24.8760014,24.0322504 25.1416268,23.626 25.360377,23.0791243 C25.9853778,21.5009974 25.8447526,17.750993 25.8447526,16.0009909 C25.8447526,14.2509888 25.9853778,10.5009843 25.360377,8.92285743 C25.1416268,8.37598178 24.8760014,7.96973129 24.4541259,7.54785579 C24.0322504,7.12598029 23.626,6.86035497 23.0791243,6.64160471 C21.5009974,6.01660397 17.750993,6.15722913 16.0009909,6.15722913 Z M28.0010052,16.0009909 C28.0010052,17.6572428 28.0166302,19.2978698 27.9228801,20.9541218 C27.82913,22.8759991 27.3916294,24.5791261 25.9853778,25.9853778 C24.5791261,27.3916294 22.8759991,27.82913 20.9541218,27.9228801 C19.2978698,28.0166302 17.6572428,28.0010052 16.0009909,28.0010052 C14.3447389,28.0010052 12.7041119,28.0166302 11.04786,27.9228801 C9.12598267,27.82913 7.42285564,27.3916294 6.01660397,25.9853778 C4.61035229,24.5791261 4.17285177,22.8759991 4.07910166,20.9541218 C3.98535155,19.2978698 4.00097656,17.6572428 4.00097656,16.0009909 C4.00097656,14.3447389 3.98535155,12.7041119 4.07910166,11.04786 C4.17285177,9.12598267 4.61035229,7.42285564 6.01660397,6.01660397 C7.42285564,4.61035229 9.12598267,4.17285177 11.04786,4.07910166 C12.7041119,3.98535155 14.3447389,4.00097656 16.0009909,4.00097656 C17.6572428,4.00097656 19.2978698,3.98535155 20.9541218,4.07910166 C22.8759991,4.17285177 24.5791261,4.61035229 25.9853778,6.01660397 C27.3916294,7.42285564 27.82913,9.12598267 27.9228801,11.04786 C28.0166302,12.7041119 28.0010052,14.3447389 28.0010052,16.0009909 Z" fill="#3C3C3C"></path>
            </g>
        </g>
    </g>
</svg>