<?xml version="1.0" encoding="UTF-8"?>
<svg width="25px" height="20px" viewBox="0 0 25 20" version="1.1" xmlns="http://www.w3.org/2000/svg" xmlns:xlink="http://www.w3.org/1999/xlink">
    <!-- Generator: Sketch 52.5 (67469) - http://www.bohemiancoding.com/sketch -->
    <title>oalr-ico-twitter</title>
    <desc>Created with Sketch.</desc>
    <g id="Symbols" stroke="none" stroke-width="1" fill="none" fill-rule="evenodd">
        <g id="constants/footer-dektop-V1" transform="translate(-650.000000, -296.000000)">
            <g id="oalr-ico-twitter" transform="translate(646.000000, 290.000000)">
                <rect id="Rectangle-Copy-2" x="0" y="0" width="32" height="32"></rect>
                <path d="M28.6250294,8.37500283 C27.9375285,9.37500402 27.0781525,10.2656301 26.0937763,10.9843809 C26.1094014,11.2031312 26.1094014,11.4218815 26.1094014,11.6406317 C26.1094014,18.3125147 21.0312703,26.0000238 11.7500092,26.0000238 C8.89063083,26.0000238 6.23437766,25.1718979 4,23.7343961 C4.40625048,23.7812712 4.79687595,23.7968962 5.21875145,23.7968962 C7.57812927,23.7968962 9.75000685,23.0000203 11.4843839,21.6406436 C9.26563128,21.5937686 7.40625406,20.1406419 6.7656283,18.1406395 C7.07812867,18.1875145 7.39062904,18.2187646 7.71875443,18.2187646 C8.17187997,18.2187646 8.62500551,18.1562645 9.04688102,18.0468894 C6.73437826,17.5781388 5.00000119,15.5468864 5.00000119,13.0937585 C5.00000119,13.0781334 5.00000119,13.0468834 5.00000119,13.0312584 C5.67187699,13.4062588 6.45312792,13.6406341 7.28125391,13.6718841 C5.92187729,12.7656331 5.03125123,11.2187562 5.03125123,9.46875414 C5.03125123,8.53125302 5.28125153,7.67187699 5.71875205,6.9218761 C8.20313001,9.98437975 11.9375095,11.9843821 16.1250145,12.2031324 C16.0468894,11.8281319 16.0000143,11.4375065 16.0000143,11.046881 C16.0000143,8.2656277 18.250017,6 21.0468953,6 C22.5000221,6 23.8125236,6.60937573 24.7343997,7.5937519 C25.8750261,7.37500164 26.9687774,6.95312614 27.9375285,6.37500045 C27.5625281,7.54687684 26.7656521,8.53125302 25.7187759,9.15625376 C26.7344021,9.04687863 27.7187783,8.7656283 28.6250294,8.37500283 Z" id="oalr-ico-FontAwesome" fill="#3C3C3C"></path>
            </g>
        </g>
    </g>
</svg>